<?xml version="1.0" encoding="UTF-8"?>
<svg width="1536px" height="1536px" viewBox="0 0 1536 1536" version="1.1" xmlns="http://www.w3.org/2000/svg" xmlns:xlink="http://www.w3.org/1999/xlink">
    <title>iPhone 8</title>
    <g id="iPhone-8" stroke="none" stroke-width="1" fill="none" fill-rule="evenodd">
        <rect fill="#0F2F5B" x="0" y="0" width="1536" height="1536"></rect>
        <g id="Group" transform="translate(99.000000, 103.000000)" fill-rule="nonzero">
            <path d="M1320.30115,619.914887 L714.574323,18.7370589 C708.664807,12.8012028 701.628456,8.0886544 693.872629,4.87237482 C686.116801,1.65609525 677.796142,0 669.39156,0 C660.986977,0 652.665375,1.65609525 644.909548,4.87237482 C637.15372,8.0886544 630.118313,12.8012028 624.208796,18.7370589 L18.9014937,619.914887 C12.9141835,625.784809 8.16021489,632.778156 4.91551615,640.48744 C1.67082683,648.196723 0,656.469135 0,664.824553 C0,673.179972 1.67082683,681.453326 4.91551615,689.16261 C8.16021489,696.871894 12.9141835,703.864298 18.9014937,709.73422 L624.208796,1311.26681 C630.118313,1317.19993 637.15372,1321.90681 644.909548,1325.12333 C652.665375,1328.33986 660.986977,1330 669.39156,1330 C677.796142,1330 686.116801,1328.33986 693.872629,1325.12333 C701.628456,1321.90681 708.664807,1317.19993 714.574323,1311.26681 L1320.30115,709.73422 C1332.27671,697.812326 1339,681.661787 1339,664.824553 C1339,647.987319 1332.27671,631.83678 1320.30115,619.914887 L1320.30115,619.914887 Z" id="Path" fill="#99CA3C"></path>
            <path d="M1017.93007,435.176451 C1014.73655,431.950922 1010.93834,429.391247 1006.76221,427.6455 C1002.57662,425.89881 998.098138,425 993.572414,425 C989.056138,425 984.568207,425.89881 980.392069,427.6455 C976.215931,429.391247 972.417724,431.950922 969.224207,435.176451 L962.147448,442.308455 C958.925586,445.534927 956.374552,449.369724 954.636069,453.592149 C952.897586,457.814575 952,462.341633 952,466.91302 C952,471.485349 952.897586,476.012408 954.636069,480.234833 C956.374552,484.457259 958.925586,488.291112 962.147448,491.518527 L1132.05579,662.682849 C1132.43372,663.043127 1132.74552,663.4798 1132.95338,663.963629 C1133.16124,664.448402 1133.26517,664.971843 1133.26517,665.5 C1133.26517,666.028157 1133.16124,666.551598 1132.95338,667.036371 C1132.74552,667.5202 1132.43372,667.956873 1132.05579,668.317151 L962.147448,839.481473 C958.925586,842.708888 956.374552,846.542741 954.636069,850.765167 C952.897586,854.987592 952,859.514651 952,864.08698 C952,868.658367 952.897586,873.185425 954.636069,877.407851 C956.374552,881.630276 958.925586,885.465073 962.147448,888.691545 L969.224207,895.823549 C972.417724,899.049078 976.215931,901.608753 980.392069,903.3545 C984.568207,905.10119 989.056138,906 993.572414,906 C998.098138,906 1002.57662,905.10119 1006.76221,903.3545 C1010.93834,901.608753 1014.73655,899.049078 1017.93007,895.823549 L1211.62917,700.766731 C1220.83179,691.416469 1226,678.778429 1226,665.606575 C1226,652.435663 1220.83179,639.797624 1211.62917,630.447361 L1017.93007,435.176451 Z" id="Path" fill="#99CA3C"></path>
            <path d="M496.777566,495.446694 C462.508682,529.077082 439.169619,571.92758 429.711683,618.578922 C420.253746,665.230263 425.102859,713.585853 443.644636,757.532276 C462.186413,801.4787 493.588798,839.040084 533.879966,865.467733 C574.171134,891.894439 621.541856,906 670,906 C718.459086,906 765.828866,891.894439 806.120034,865.467733 C846.411202,839.040084 877.813587,801.4787 896.355364,757.532276 C914.897141,713.585853 919.746254,665.230263 910.288317,618.578922 C900.830381,571.92758 877.491318,529.077082 843.222434,495.446694 C820.477025,473.113204 793.472387,455.396371 763.751078,443.309124 C734.028827,431.221876 702.17225,425 670,425 C637.82775,425 605.971173,431.221876 576.248922,443.309124 C546.527613,455.396371 519.522975,473.113204 496.777566,495.446694 L496.777566,495.446694 Z M787.894872,781.062608 C764.596328,803.941231 734.908942,819.523745 702.586865,825.839935 C670.265731,832.155182 636.761058,828.921165 606.312288,816.544375 C575.863518,804.168527 549.837938,783.206359 531.527968,756.309971 C513.217056,729.413582 503.443446,697.792076 503.443446,665.443412 C503.443446,633.093804 513.217056,601.472298 531.527968,574.57591 C549.837938,547.679522 575.863518,526.717353 606.312288,514.341506 C636.761058,501.965659 670.265731,498.730698 702.586865,505.045945 C734.908942,511.362135 764.596328,526.944649 787.894872,549.823273 C819.091834,580.510129 836.613092,622.091165 836.613092,665.443412 C836.613092,708.794716 819.091834,750.375751 787.894872,781.062608 L787.894872,781.062608 Z" id="Shape" fill="#FFFFFF"></path>
        </g>
    </g>
</svg>