<?xml version="1.0" encoding="UTF-8"?>
<svg width="1536px" height="1536px" viewBox="0 0 1536 1536" version="1.1" xmlns="http://www.w3.org/2000/svg" xmlns:xlink="http://www.w3.org/1999/xlink">
    <title>Ícone-Claro</title>
    <g id="Ícone-Claro" stroke="none" stroke-width="1" fill="none" fill-rule="evenodd">
        <rect fill="#FFFFFF" x="0" y="0" width="1536" height="1536"></rect>
        <g id="Claro-agenda_vertical-positivo" transform="translate(158.000000, 379.000000)" fill-rule="nonzero">
            <g id="Group" transform="translate(214.400000, 484.000000)" fill="#040602">
                <path d="M98,230 L98,215.6 C86.8,226.8 76,231.6 56.8,231.6 C37.6,231.6 24,226.8 14,216.8 C4.8,207.6 1.13686838e-13,194 1.13686838e-13,179.2 C1.13686838e-13,152.4 18.4,130.4 57.6,130.4 L97.2,130.4 L97.2,122 C97.2,103.6 88,95.6 66,95.6 C50,95.6 42.4,99.6 33.6,109.6 L6.8,83.6 C23.2,65.6 39.2,60.4 67.6,60.4 C114.8,60.4 139.2,80.4 139.2,119.6 L139.2,230.4 L98,230.4 L98,230 Z M97.2,159.2 L64,159.2 C48.8,159.2 40.4,166.4 40.4,178.4 C40.4,190 48,197.6 64.8,197.6 C76.4,197.6 84,196.8 91.2,189.6 C95.6,185.6 97.2,178.8 97.2,168.4 L97.2,159.2 L97.2,159.2 Z" id="Shape"></path>
                <path d="M235.6,293.6 C209.6,293.6 192,288.4 174.8,271.6 L200.8,245.2 C210,254.4 219.6,258 233.6,258 C258.8,258 267.6,240.4 267.6,223.2 L267.6,206 C256.8,218.4 244,222.8 227.6,222.8 C211.2,222.8 196.8,217.2 187.6,208 C171.6,192 170.4,170.4 170.4,141.2 C170.4,112 171.6,90.4 187.6,74.8 C196.8,65.6 211.6,60 228,60 C245.6,60 257.2,64.8 268.8,77.6 L268.8,61.6 L309.6,61.6 L309.6,223.6 C309.6,264.4 280.8,293.6 235.6,293.6 Z M240,97.6 C215.2,97.6 212.4,118.8 212.4,141.2 C212.4,163.6 214.8,185.2 240,185.2 C265.2,185.2 267.6,163.6 267.6,141.2 C267.6,118.8 264.8,97.6 240,97.6 Z" id="Shape"></path>
                <path d="M383.2,159.2 C383.2,180.8 396.4,196.8 420,196.8 C438.4,196.8 447.6,191.6 458,180.8 L483.6,205.6 C466.4,222.8 450,232 419.6,232 C380,232 342,214 342,146 C342,91.2 371.6,60 415.2,60 C462,60 488.4,94.4 488.4,140.4 L488.4,159.2 L383.2,159.2 L383.2,159.2 Z M443.2,112.4 C438.8,102.4 429.2,94.8 415.2,94.8 C401.2,94.8 391.6,102.4 387.2,112.4 C384.8,118.4 383.6,123.2 383.2,130.4 L447.2,130.4 C446.8,122.8 446,118.4 443.2,112.4 Z" id="Shape"></path>
                <path d="M618.4,230 L618.4,128.4 C618.4,105.6 604,97.6 590.8,97.6 C577.6,97.6 562.8,105.2 562.8,128.4 L562.8,230 L520.8,230 L520.8,62 L561.6,62 L561.6,77.6 C572.4,66 588,60 603.6,60 C620.4,60 634,65.6 643.2,74.8 C656.8,88.4 660.4,104 660.4,122.4 L660.4,230 L618.4,230 Z" id="Path"></path>
                <path d="M792,230 L792,214 C780.4,226.8 768,231.6 750.4,231.6 C734,231.6 718.4,225.6 709.2,216.4 C692.4,199.6 692,170.4 692,145.6 C692,120.4 692.4,91.6 709.2,74.8 C718.4,65.6 733.6,59.6 750,59.6 C767.2,59.6 780,64 790.8,76.4 L790.8,-1.13686838e-13 L832.8,-1.13686838e-13 L832.8,229.6 L792,229.6 L792,230 Z M762.4,97.6 C737.2,97.6 734,118.4 734,145.6 C734,172.8 737.2,194 762.4,194 C787.6,194 791.2,173.2 791.2,145.6 C791.2,118 787.6,97.6 762.4,97.6 Z" id="Shape"></path>
                <path d="M960,230 L960,215.6 C948.8,226.8 938,231.6 918.8,231.6 C899.6,231.6 886,226.8 876,216.8 C866.8,207.6 862,194 862,179.2 C862,152.4 880.4,130.4 919.6,130.4 L959.2,130.4 L959.2,122 C959.2,103.6 950,95.6 928,95.6 C912,95.6 904.4,99.6 895.6,109.6 L868.8,83.6 C885.2,65.6 901.2,60.4 929.6,60.4 C976.8,60.4 1001.2,80.4 1001.2,119.6 L1001.2,230.4 L960,230.4 L960,230 Z M958.8,159.2 L925.6,159.2 C910.4,159.2 902,166.4 902,178.4 C902,190 909.6,197.6 926.4,197.6 C938,197.6 945.6,196.8 952.8,189.6 C957.2,185.6 958.8,178.8 958.8,168.4 L958.8,159.2 L958.8,159.2 Z" id="Shape"></path>
            </g>
            <g id="Group" fill="#DA291C">
                <path d="M956.4,364 C944,376.8 929.2,382.8 911.2,382.8 C894,382.8 878.8,376.8 866.8,364 C854.4,351.2 848,336 848,318.8 C848,300.4 854.8,285.2 866.8,273.2 C879.2,260.4 894,254.4 911.2,254.8 C929.2,254.4 944,260.4 956.8,273.2 C968.4,285.6 974.8,300.4 975.2,318.8 C974.8,336 968.8,351.2 956.4,364 M997.2,232.4 C973.2,208.4 944.4,196.8 911.6,196.8 C878.8,196.8 850.4,208.4 826.8,232.4 C802.8,256.4 791.2,285.2 791.2,318.8 C791.2,352.4 802.8,381.2 826.8,404.8 C850,428.8 878.4,441.2 911.6,441.2 C944.8,441.2 973.6,428.8 997.2,404.8 C1020.4,381.2 1032.4,352.4 1032.4,318.8 C1032,285.2 1020.4,256.4 997.2,232.4" id="Shape"></path>
                <path d="M149.2,136.8 C107.6,136.4 72.8,150.8 44,180.8 C14.4,210.4 0,245.6 0,287.2 C0,328.4 14.4,364.8 44,394.4 C72.8,423.2 107.6,438 149.2,438 C182.8,438 213.2,428 240,407.2 C266,386 283.6,360 292.4,327.6 L231.6,327.6 C224,343.2 212.8,356 198.8,366 C183.2,375.6 167.2,380.4 149.2,380.4 C123.6,380.4 102,370.8 84,353.2 C65.6,334.8 56.8,313.2 57.2,287.6 C56.8,262 65.6,240 84,222 C102,204 123.6,194.8 149.2,194.8 C167.2,194.8 183.2,199.6 198.8,210 C212.8,219.6 224,232.8 231.6,248.4 L292.4,248.4 C283.6,216 266.4,189.2 240,168.8 C213.2,147.2 182.4,136.4 149.2,136.8" id="Path"></path>
                <path d="M541.2,327.2 L552.4,321.2 L552.4,344.4 C552.4,364.4 546.8,378.4 536.4,386 C525.2,394 513.6,397.6 500,397.6 C491.6,397.6 484.8,395.2 479.6,390.8 C474,385.6 471.2,378.4 471.2,368 C471.2,356.4 475.6,348 485.2,341.6 C490.8,338.4 500.4,335.6 512.4,333.6 L541.2,327.2 Z M516.4,196 C477.6,195.6 450,206 434.4,226.8 C424.4,239.6 419.2,256.4 417.6,277.6 L475.6,277.6 C476.8,267.6 480,260.8 484,256.4 C490,248.4 500,244.8 514.8,245.2 C527.2,244.4 536.4,246.8 543.2,250.8 C550,254 552.8,260.8 553.2,270.4 C553.2,278 548.8,284.4 540,288.4 L495.6,295.6 C475.2,298.4 458.4,303.6 445.6,310.8 C424,323.6 413.2,344.4 414,374 C413.6,394.4 420,411.2 433.6,423.6 C445.2,433.6 461.6,439.2 480.8,439.6 C512.4,439.2 537.6,431.2 555.2,415.6 L555.2,439.6 L613.2,439.6 L613.2,268.8 C613.2,240.8 603.2,221.6 584.4,211.2 C564,200.4 541.6,195.6 516.4,196" id="Shape"></path>
                <rect id="Rectangle" x="321.6" y="136.8" width="58" height="302.4"></rect>
                <path d="M748,204.4 C732.4,210.4 718.4,221.2 706.8,237.2 L706.8,207.6 L651.6,207.2 L651.6,439.2 L708.8,439.2 L708.8,328.4 C708.8,309.6 711.2,296 716,287.6 C720,278.8 727.2,271.6 736,265.2 C746,258.4 756.4,255.2 767.6,255.2 L785.2,256.4 L784.8,197.2 L769.6,198.4 L748,204.4 Z" id="Path"></path>
                <polygon id="Path" points="1042 205.6 1182 65.6 1145.2 28.8 1005.6 168.8"></polygon>
                <rect id="Rectangle" x="892.4" y="2.84217094e-14" width="51.6" height="150"></rect>
                <rect id="Rectangle" x="1067.6" y="263.6" width="153.2" height="52"></rect>
            </g>
        </g>
    </g>
</svg>