<?xml version="1.0" encoding="UTF-8"?>
<svg width="1536px" height="1536px" viewBox="0 0 1536 1536" version="1.1" xmlns="http://www.w3.org/2000/svg" xmlns:xlink="http://www.w3.org/1999/xlink">
    <title>Resorts-AppIcon</title>
    <g id="Resorts-AppIcon" stroke="none" stroke-width="1" fill="none" fill-rule="evenodd">
        <rect fill="#FFFFFF" x="0" y="0" width="1536" height="1536"></rect>
        <g id="Group" transform="translate(211.000000, 135.000000)" fill-rule="nonzero">
            <path d="M0,1200.07292 L0,614 L272.380834,864.520467 L419.414776,717.436729 L644,942.098014 L589.472558,973.612286 L98.4686148,1257.18932 C78.1211249,1268.95348 53.0384168,1268.93575 32.7075671,1257.14284 C12.3767173,1245.34992 -0.0984439776,1223.5822 0,1200.07292 Z" id="Path" fill="#DEF2FD"></path>
            <polygon id="Path" fill="#CAE4EE" points="420 1011 420 717 273 864"></polygon>
            <path d="M1081.15908,575.864958 L589.816632,292.310798 L98.5256054,8.80803495 C78.2060265,-2.92977204 53.1636396,-2.93642661 32.8378189,8.79057959 C12.5119983,20.5175858 0,42.1952557 0,65.6524977 L0,472.558114 L272.539509,723.064363 L419.65942,576.019148 L496.793242,653.113808 L733.799767,890 L1081.15908,689.553884 C1101.48069,677.830783 1114,656.161067 1114,632.709421 C1114,609.257775 1101.48069,587.588059 1081.15908,575.864958 L1081.15908,575.864958 Z" id="Path" fill="#2E97C6"></path>
            <path d="M420.170996,643 C422.541742,640.582846 488.201105,573.159692 506.394005,517.20516 C506.806309,516.125155 507.115537,514.993721 507.424764,513.862288 C509.856952,506.143299 511.056997,498.090526 510.980884,489.999326 C511.006372,489.553972 511.006372,489.10753 510.980884,488.662177 C509.804895,439.357809 469.413627,400 419.990613,400 C370.567598,400 330.17633,439.357809 329,488.662177 C329,489.125036 329,489.536466 329,489.999326 C328.976744,498.086813 330.175599,506.131603 332.556461,513.862288 C332.917227,514.993721 333.226455,516.125155 333.58722,517.20516 C351.780121,573.159692 417.491022,640.634275 419.861768,643 L419.861768,643 L419.861768,643 L420.170996,643 Z" id="Path" fill="#DF1F26"></path>
            <circle id="Oval" fill="#FFFFFF" cx="420.5" cy="493.5" r="47.5"></circle>
        </g>
    </g>
</svg>