<?xml version="1.0" encoding="UTF-8"?>
<svg width="386px" height="375px" viewBox="0 0 386 375" version="1.1" xmlns="http://www.w3.org/2000/svg" xmlns:xlink="http://www.w3.org/1999/xlink">
    <title>Group-2</title>
    <g id="Page-1" stroke="none" stroke-width="1" fill="none" fill-rule="evenodd">
        <g id="Logo-Abacomm-Vertical" transform="translate(-491.000000, 0.611610)" fill="#EA5042" fill-rule="nonzero">
            <g id="Group-2" transform="translate(491.331597, 0.000000)">
                <path d="M372.649547,373.608815 C372.649547,373.608815 371.91665,373.205729 370.817305,372.6011 L325.066219,350.504658 C322.189599,349.167146 319.917619,348.104465 318.580082,347.518158 C318.286923,347.389903 318.012087,347.243326 317.718928,347.09675 L317.718928,347.115072 C317.645639,347.09675 317.590671,347.041783 317.517382,347.005139 C317.27919,346.876885 317.040999,346.74863 316.82113,346.620375 C316.436359,346.418832 316.088233,346.198967 315.703462,345.942458 C315.68514,345.942458 315.666817,345.905814 315.630172,345.887492 C313.449804,344.440046 311.562595,342.534549 310.115123,340.280932 C307.678241,336.488259 306.578896,331.981025 307.091924,327.657012 C307.091924,327.437146 307.110246,327.217281 307.146891,326.979094 C307.348438,325.531649 307.659919,323.039845 308.026367,319.906767 L312.790197,275.84214 L293.863136,241.744729 L253.956902,222.46989 C251.080282,221.132377 248.808302,220.088018 247.470765,219.483389 C247.177606,219.355134 246.90277,219.208558 246.591289,219.061981 L246.591289,219.061981 C246.554644,219.025337 246.481354,219.007015 246.408065,218.970371 C246.188196,218.842116 245.950004,218.732183 245.711813,218.585607 C245.345364,218.365742 244.960593,218.145876 244.612467,217.907689 C244.594145,217.907689 244.5575,217.871045 244.539178,217.871045 C242.35881,216.4236 240.4716,214.49978 239.024129,212.246163 C236.568924,208.490135 235.487902,203.946256 236.000929,199.640565 C236.019252,199.4207 236.037574,199.200835 236.055897,198.98097 C236.257443,197.515203 236.568924,195.023398 236.935373,191.890321 L242.395454,141.357995 C242.468744,140.112093 242.523711,139.269277 242.523711,139.269277 C242.89016,137.913442 243.806281,136.850761 244.997238,136.209488 C246.133228,135.549892 247.544055,135.330027 248.881592,135.696469 C248.881592,135.696469 249.632811,136.117877 250.732156,136.740828 L296.501564,158.818947 C299.359862,160.15646 301.631842,161.219141 302.987702,161.82377 C303.262538,161.952025 303.537374,162.098602 303.812211,162.245178 L303.830533,162.245178 C303.903823,162.281822 303.95879,162.318467 304.013757,162.336789 C304.251949,162.465043 304.49014,162.593298 304.728332,162.739875 C305.113102,162.923096 305.479551,163.161283 305.827677,163.39947 C305.864322,163.417792 305.882644,163.436114 305.900967,163.454436 C308.081335,164.883559 309.950222,166.825701 311.397693,169.09764 C313.87122,172.853669 314.952243,177.379225 314.420892,181.684916 C314.40257,181.904781 314.40257,182.142969 314.365925,182.362834 C314.182701,183.828601 313.87122,186.320405 313.486449,189.453483 L308.740942,233.51811 L327.668003,267.633843 L367.592559,286.89036 C370.450857,288.246195 372.722837,289.290554 374.060374,289.895183 C374.353532,290.023438 374.628369,290.188336 374.921528,290.316591 L374.921528,290.316591 C374.976495,290.353235 375.049784,290.389879 375.123074,290.426524 C375.361266,290.554778 375.599457,290.664711 375.837649,290.811287 C376.204097,291.01283 376.570545,291.251018 376.955316,291.489205 C376.973639,291.489205 377.010284,291.525849 377.010284,291.525849 C379.190652,292.973294 381.059539,294.915436 382.525332,297.187375 C384.962214,300.943404 386.043237,305.450638 385.548532,309.774651 C385.530209,309.994516 385.511887,310.232703 385.475242,310.470891 C385.273696,311.918336 384.962214,314.41014 384.577444,317.56154 L379.135684,368.093865 C379.062395,369.339768 379.02575,370.182584 379.02575,370.182584 C378.640979,371.520096 377.706536,372.6011 376.533901,373.224051 C375.39791,373.755391 374.005406,373.993579 372.649547,373.608815 Z" id="Path"></path>
                <path d="M215.113369,65.0464882 C215.076724,64.7899789 215.040079,64.5151475 215.021757,64.2586383 C215.003435,64.1853499 215.003435,64.1120616 215.003435,64.0387732 L214.985112,64.0387732 C214.96679,63.7089756 214.911822,63.3975 214.875178,63.1043466 C214.618664,61.6385793 214.233893,59.1834192 213.775832,56.0503417 L206.831635,5.6829149 C206.7217,4.43701274 206.666733,3.59419658 206.666733,3.59419658 C206.245317,2.27500606 205.292551,1.21232481 204.083271,0.626017905 C202.928959,2.22044605e-15 201.518132,-0.198476165 200.162273,0.222931917 C200.162273,0.222931917 199.447699,0.680984185 198.366676,1.32225735 L153.29352,24.737889 C150.471867,26.1670121 148.218209,27.2663375 146.898995,27.9076107 C146.679126,28.0175432 146.495901,28.1274758 146.276032,28.2374083 C142.410001,30.197872 139.258545,33.6057808 137.462948,37.7282512 C136.363602,40.1834113 135.832252,42.8217924 135.832252,45.4418513 C135.81393,45.4784955 135.832252,45.4968176 135.832252,45.5151397 C135.81393,45.9365477 135.850575,46.3946 135.887219,46.797686 C135.887219,47.0541953 135.923864,47.3290266 135.960509,47.603858 C135.960509,47.6588243 135.960509,47.7321126 135.978832,47.8237231 L135.997154,47.8237231 C136.015476,48.1351986 136.052121,48.4649962 136.107088,48.7581497 C136.34528,50.2055948 136.730051,52.6973992 137.206434,55.8121545 L143.252833,99.7118832 L125.333505,134.377279 L85.9952664,154.824732 C83.1552911,156.253855 80.9199557,157.371502 79.6007414,158.031097 C79.3991947,158.104386 79.2159705,158.23264 78.9961015,158.342573 C75.9179347,159.899951 73.3344733,162.373433 71.5022311,165.378256 C70.494498,166.679124 69.5966993,168.053281 68.9370922,169.592337 C67.8560693,172.047497 67.3247191,174.685878 67.3063967,177.324259 C67.2880743,177.360903 67.3063967,177.379225 67.2880743,177.397547 C67.3063967,177.818955 67.3247191,178.258685 67.3430415,178.698416 C67.3613639,178.954925 67.3980088,179.248078 67.4163312,179.486265 C67.4163312,179.559554 67.4163312,179.632842 67.4346536,179.706131 C67.4712985,180.017606 67.5262657,180.347404 67.5629106,180.658879 C67.801102,182.106324 68.1858729,184.579807 68.6805783,187.712884 L74.7269773,231.612613 L56.7893269,266.29633 L17.4694108,286.707139 C14.6477579,288.136262 12.3941001,289.25391 11.0748857,289.913505 C10.8550167,290.005116 10.6717925,290.115048 10.4519234,290.224981 C6.58589254,292.167122 3.43443607,295.593353 1.65716121,299.715823 C0.557815937,302.170984 0.00814329822,304.809365 0.00814329822,307.429424 C-0.0101791228,307.466068 0.00814329822,307.48439 0.00814329822,307.502712 C0.00814329822,307.960764 0.0264657192,308.382172 0.0447881412,308.821902 C0.0814329832,309.078412 0.0997554042,309.334921 0.118077826,309.628074 C0.118077826,309.683041 0.118077826,309.756329 0.136400247,309.84794 L0.154722668,309.84794 C0.191367511,310.141093 0.191367511,310.470891 0.264657196,310.782366 C0.502848673,312.248133 0.887619524,314.721616 1.36400247,317.854693 L8.32652256,368.185476 C8.43645708,369.431378 8.47310193,370.292516 8.47310193,370.292516 C8.89451762,371.630029 9.8839284,372.674388 11.0565633,373.279017 C12.2475207,373.883646 13.6217023,374.066867 14.9775615,373.627137 C14.9775615,373.627137 15.6921359,373.205729 16.7914812,372.582778 L61.8646376,349.148824 C64.7046128,347.738023 66.9399482,346.602053 68.2591626,345.96078 C68.4790316,345.86917 68.6622558,345.759237 68.8821249,345.667627 C72.7664782,343.688841 75.9179347,340.280932 77.713532,336.158462 C78.7945548,333.721624 79.3442275,331.083242 79.325905,328.444861 C79.325905,328.426539 79.3442275,328.371573 79.325905,328.371573 C79.325905,327.931843 79.3075826,327.492113 79.2892602,327.070705 C79.2526153,326.795873 79.2342929,326.539364 79.1976481,326.282855 C79.1793257,326.191244 79.1793257,326.136278 79.1976481,326.06299 L79.1793257,326.081312 C79.1426808,325.733192 79.106036,325.440039 79.0693911,325.110241 C78.8128772,323.662796 78.4281064,321.189314 77.9517234,318.056236 L71.9053244,274.138185 L89.8246524,239.491112 L129.144568,219.043659 C131.966221,217.632858 134.219879,216.496888 135.539093,215.873937 C135.74064,215.782327 135.942187,215.672394 136.143733,215.580784 C139.2219,214.023406 141.805362,211.531602 143.655926,208.526779 C144.645337,207.22591 145.561458,205.851754 146.202743,204.312698 C147.302088,201.857538 147.870083,199.219157 147.851761,196.599098 C147.833438,196.580776 147.833438,196.562454 147.851761,196.52581 C147.851761,196.086079 147.851761,195.664671 147.796793,195.243263 C147.778471,194.95011 147.760148,194.711923 147.741826,194.455413 C147.741826,194.382125 147.705181,194.290515 147.705181,194.235548 L147.705181,194.217226 C147.650214,193.905751 147.650214,193.594275 147.576924,193.2828 C147.338733,191.817032 146.935639,189.34355 146.477579,186.228795 L140.412857,142.329066 L158.350508,107.663671 L197.652102,87.2345398 C200.492077,85.8054167 202.727412,84.6877692 204.064949,84.0648181 C204.248173,83.9548856 204.44972,83.8632751 204.651267,83.7533426 C208.53562,81.7928789 211.687076,78.3849701 213.482674,74.2624997 C214.563696,71.8073396 215.113369,69.1689585 215.095047,66.5488996 C215.113369,66.5122554 215.113369,66.4939333 215.113369,66.4572891 C215.131691,65.8893043 215.113369,65.4678963 215.113369,65.0464882 Z" id="Path"></path>
                <path d="M210.624376,320.54804 C208.059237,322.435216 206.080415,323.919305 204.90778,324.817088 C204.669589,325.000308 204.394753,325.201851 204.119916,325.36675 L204.119916,325.36675 C204.064949,325.403394 204.009982,325.440039 203.936692,325.495005 C203.716823,325.641582 203.515276,325.788158 203.277085,325.953057 C202.892314,326.172922 202.525866,326.374465 202.141095,326.576008 C202.122772,326.612652 202.067805,326.612652 202.049483,326.630974 C199.740858,327.858555 197.157396,328.591438 194.482323,328.792981 C189.993329,329.122779 185.504336,327.931843 181.968109,325.403394 C181.803207,325.27514 181.583338,325.165207 181.418436,325.018631 C180.227479,324.13917 178.19369,322.691725 175.610229,320.859516 L133.853431,291.910613 C132.79073,291.251018 132.057833,290.82961 132.057833,290.82961 C131.0501,289.840217 130.555395,288.521026 130.572651,287.183514 C130.555395,285.846001 130.995133,284.52681 132.002866,283.500773 C132.002866,283.500773 132.717441,283.079365 133.780141,282.383126 L175.042234,252.737983 C177.58905,250.86913 179.622839,249.366719 180.777152,248.468936 C181.015343,248.267393 181.290179,248.102494 181.546693,247.937596 L181.528371,247.919274 C181.619983,247.864307 181.656628,247.827663 181.729917,247.791019 C181.949787,247.644442 182.169656,247.497865 182.389525,247.369611 C182.755973,247.131424 183.122422,246.893236 183.525515,246.710016 C183.56216,246.691693 183.56216,246.691693 183.580482,246.673371 C185.90743,245.445791 188.490891,244.694586 191.165964,244.529687 C195.67328,244.163245 200.143951,245.390825 203.680178,247.882629 C203.881725,248.010884 204.064949,248.139139 204.248173,248.267393 C205.420808,249.128532 207.472919,250.612621 210.056381,252.426508 L251.831501,281.357089 C252.894202,282.016684 253.608776,282.456414 253.608776,282.456414 C254.598187,283.445807 255.111215,284.78332 255.092892,286.10251 C255.129537,287.421701 254.634832,288.777535 253.663743,289.748606 C253.663743,289.748606 252.949169,290.206659 251.886469,290.902898 L210.624376,320.54804 Z" id="Path"></path>
            </g>
        </g>
    </g>
</svg>