<?xml version="1.0" encoding="UTF-8"?>
<svg width="1536px" height="1536px" viewBox="0 0 1536 1536" version="1.1" xmlns="http://www.w3.org/2000/svg" xmlns:xlink="http://www.w3.org/1999/xlink">
    <title>ambev-logo</title>
    <g id="Page-1" stroke="none" stroke-width="1" fill="none" fill-rule="evenodd">
        <g id="ambev-logo" fill-rule="nonzero">
            <rect id="Rectangle" fill="#B90B2F" x="0" y="0" width="1536" height="1536"></rect>
            <g id="bEvJEWqH-link" transform="translate(128.030000, 611.990000)" fill="#FFFFFF">
                <path d="M845.9,189.02 C842.52,304.56 996.74,344.54 1047.36,280.92 C1047.36,276.02 1047.36,236.76 1047.36,231.86 C1047.36,231.86 1031.28,259.64 968.96,259.64 C906.64,259.64 904.56,213.42 904.56,213.42 C920.64,213.42 1049.22,213.42 1065.28,213.42 C1066.86,205.38 1067.64,197.2 1067.62074,189.02 C1067.36,122.04 1017.78,67.76 956.76,67.76 C895.48,67.76 847.96,122.04 845.9,189.02 Z M903.8,172.14 C910.28,146.44 932.36,127.22 958.32,127.22 C984.28,127.22 1006.34,146.18 1012.84,172.14 C991.02,172.14 925.6,172.14 903.8,172.14 Z M95.28,71.4 C42.58,71.4 0,124.62 0,190.32 C0,256 42.84,309.48 95.54,309.48 C120.22,309.48 142.54,297.8 159.42,278.86 C159.42,280.8 159.42,290.58 159.42,308.18 L220.7,308.18 L220.7,72.7 L159.16,72.7 L159.16,102.04 C133.02,81.62 111.74,71.4 95.28,71.4 Z M64.66,191.62 C64.66,155.78 86.46,126.44 113.46,126.44 C140.46,126.44 162.28,155.78 162.28,191.62 C162.28,227.44 140.46,256.78 113.46,256.78 C86.46,256.78 64.66,227.44 64.66,191.62 Z M568.6,126.18 C568.6,126.18 564.7,70.88 507.06,70.88 C507.06,70.88 436.96,103.08 436.96,103.08 C424.9,81.04 401.58,67.54 376.48,68.02 C340.38,68.02 321.18,88.8 315.46,96.32 C315.46,94.66 315.46,86.36 315.46,71.4 L255.48,71.4 L255.48,307.42 L315.46,307.42 C315.46,215.04 315.46,163.72 315.46,153.44 C319.36,143.84 329.48,125.14 351.02,125.14 C374.66,125.14 381.66,144.62 383.22,156.04 C383.22,168.48 383.22,267.98 383.22,280.4 C385.56,292.1 392.32,300.4 400.88,307.42 C406.88,307.42 454.86,307.42 460.86,307.42 C451.24,299.62 445.28,290.8 443.2,280.92 C443.2,269.32 443.2,176.48 443.2,164.88 C443.2,164.88 441.38,127.48 477.22,125.66 C503.18,124.36 507.84,148 508.62,160.98 C508.62,172.92 508.62,268.46 508.62,280.4 C510.96,292.1 517.72,300.4 526.28,307.42 C532.28,307.42 580.26,307.42 586.26,307.42 C576.66,299.36 570.42,290.8 568.6,280.92 C568.6,249.98 568.6,141.66 568.6,126.18 Z M670.9,102.04 C670.9,95.24 670.9,61.22 670.9,0 L609.62,0 L609.62,308.18 L670.9,308.18 C670.9,290.58 670.9,280.8 670.9,278.86 C687.78,297.8 710.1,309.48 734.76,309.48 C787.48,309.48 830.06,256.26 830.06,190.32 C830.06,124.36 787.48,71.4 734.76,71.4 C710.1,71.4 687.78,83.08 670.9,102.04 Z M667.78,191.62 C667.78,155.78 689.6,126.44 716.6,126.44 C743.6,126.44 765.4,155.78 765.4,191.62 C765.4,227.44 743.6,256.78 716.6,256.78 C689.6,256.78 667.78,227.44 667.78,191.62 Z M1210.68,71.66 L1166.28,237.82 L1121.88,71.66 L1050.74,71.66 L1129.42,307.68 L1196.92,307.68 L1280,71.66 L1210.68,71.66 Z" id="bEvJEWqH"></path>
            </g>
        </g>
    </g>
</svg>