<?xml version="1.0" encoding="UTF-8"?>
<svg width="1536px" height="1536px" viewBox="0 0 1536 1536" version="1.1" xmlns="http://www.w3.org/2000/svg" xmlns:xlink="http://www.w3.org/1999/xlink">
    <title>Desktop</title>
    <defs>
        <rect id="path-1" x="0" y="0" width="1536" height="1536"></rect>
    </defs>
    <g id="Desktop" stroke="none" stroke-width="1" fill="none" fill-rule="evenodd">
        <rect fill="#FFFFFF" x="0" y="0" width="1536" height="1536"></rect>
        <mask id="mask-2" fill="white">
            <use xlink:href="#path-1"></use>
        </mask>
        <use id="Background" fill="#FFFFFF" xlink:href="#path-1"></use>
        <g id="Group" mask="url(#mask-2)" fill="#AC0B12" fill-rule="nonzero">
            <g transform="translate(393.000000, 75.000000)">
                <path d="M202.964113,462.459136 L398.413578,148.897833 C417.132118,118.817519 418.022636,80.9933904 400.740306,50.07167 C383.457977,19.1499495 350.716391,-0.0141758578 315.193716,0 L315.193716,0 C281.413833,0.0873599355 250.067005,17.5244402 232.266881,46.129138 L33.887139,363.777832 C-9.19555441,432.813784 -11.343389,519.690761 28.275613,590.756402 C67.8946149,661.822043 143.057012,705.913199 224.648161,705.950873 L471.963527,705.950873 C506.757992,705.950873 534.964479,734.054251 534.964479,768.721525 L534.964479,1244.90261 C534.886647,1270.84226 545.154355,1295.75028 563.508799,1314.14713 C581.863243,1332.54399 606.800906,1342.92268 632.835726,1343 L632.835726,1343 C686.936129,1343 730.838506,1299.38892 731,1245.48652 L731,723.176308 C731,666.832853 708.515547,612.801335 668.501062,572.987887 C628.486577,533.174439 574.225967,510.846417 517.675846,510.923918 L230.215687,510.923918 C218.64739,510.93359 207.978053,504.710196 202.323891,494.654713 C196.669728,484.59923 196.91463,472.283585 202.964113,462.459136 Z" id="Path"></path>
                <circle id="Oval" cx="652.5" cy="98.5" r="98.5"></circle>
            </g>
        </g>
    </g>
</svg>