<?xml version="1.0" encoding="UTF-8"?>
<svg width="1536px" height="1536px" viewBox="0 0 1536 1536" version="1.1" xmlns="http://www.w3.org/2000/svg" xmlns:xlink="http://www.w3.org/1999/xlink">
    <title>Pdal-AppIcon</title>
    <g id="Pdal-AppIcon" stroke="none" stroke-width="1" fill="none" fill-rule="evenodd">
        <rect fill="#2D3748" x="0" y="0" width="1536" height="1536"></rect>
        <g id="PDAL-LOGO" transform="translate(280.000000, 173.000000)" fill-rule="nonzero">
            <g id="Group" transform="translate(53.000000, 0.000000)">
                <path d="M714,443.232875 C714.009642,507.751908 688.443384,569.63225 642.925508,615.26093 C597.407633,660.88961 535.666727,686.528964 471.285087,686.538628 L190.826644,686.538628 L156.355673,891 L0,891 L116.35771,200 L471.394172,200 C605.399313,200.060356 714,308.941747 714,443.232875 L714,443.232875 Z" id="Path" fill="#DB2C3B"></path>
                <path d="M923,442.536324 C922.959862,686.914016 724.739247,885 480.23561,885 C478.890926,885 477.546242,885 476.274244,885 L476.274244,885 L207.591888,885 L216.386847,833.056559 L234.013107,728.624815 L457.993813,728.624815 C463.190834,728.915408 468.424198,729.060704 473.657562,729.060704 C474.529789,729.060704 475.402016,729.060704 476.274244,729.060704 C633.310489,726.727587 759.184978,598.449217 758.467618,441.478159 C757.750259,284.5071 630.708579,157.38337 473.657562,156.484157 L130,156.484157 L156.421219,0 L475.765445,0 L475.765445,0 C477.219157,0 478.709212,0 480.23561,0 C724.759317,0.0200580865 922.979932,198.13857 923,442.536324 L923,442.536324 Z" id="Path" fill="#FFFFFF"></path>
            </g>
            <path d="M68.526907,1190 L0,1190 L37.2531256,978 L115.963037,978 C170.501903,978 200,1002.24313 200,1042.06593 C200,1096.66758 163.036782,1120.80151 101.358942,1120.80151 L81.0654104,1120.80151 L68.526907,1190 Z M101.141511,1068.74794 C120.202935,1068.74794 131.54557,1062.45055 131.54557,1048.98214 C131.54557,1036.13255 122.304765,1032.23764 107.084617,1032.23764 L96.5392281,1032.23764 L90.0163073,1068.63874 L101.141511,1068.74794 Z" id="Shape" fill="#FFFFFF"></path>
            <path d="M240.213725,978 L327.540965,978 C374.900593,978 429,1002.86622 429,1068.43586 C429,1142.99811 374.175886,1190 300.255732,1190 L203,1190 L240.213725,978 Z M280.761103,1130.40117 L303.118326,1130.40117 C338.846401,1130.40117 357.47138,1103.45973 357.47138,1075.79014 C357.47138,1054.23699 344.970178,1036.57943 316.054353,1036.57943 L297.465608,1036.57943 L280.761103,1130.40117 Z" id="Shape" fill="#FFFFFF"></path>
            <path d="M577.338131,1190 L572.538858,1157.63942 L503.785639,1157.63942 L486.115589,1190 L409,1190 L538.980306,978 L611.951068,978 L649,1189.9636 L577.338131,1190 Z M560.577034,1050.18338 L530.399788,1104.78503 L566.757915,1104.78503 L560.577034,1050.18338 Z" id="Shape" fill="#FFFFFF"></path>
            <polygon id="Path" fill="#FFFFFF" points="671 1189.81815 708.727033 978 779.043176 978 751.885584 1130.75347 824 1130.75347 813.430559 1190"></polygon>
        </g>
    </g>
</svg>